#N canvas 837 33 687 506 10;
#X declare -path ../bin -lib pof;
#X obj 27 45 pofhead;
#X msg 275 230 clear;
#X obj 177 295 t a;
#X obj 53 125 loadbang;
#X obj 28 10 declare -path ../bin -lib pof;
#X obj 54 98 poftouch 5000 5000, f 21;
#X obj 177 124 route move down up, f 25;
#X obj 177 147 spigot;
#X msg 226 147 1;
#X msg 275 147 0;
#X obj 239 179 tgl 18 0 empty empty empty 0 -9 0 10 #fcfcfc #000000 #000000 0 1;
#X msg 327 230 width \$1;
#X msg 398 230 divider \$1;
#X floatatom 327 207 5 0 0 0 - - - 0;
#X floatatom 398 206 5 0 0 0 - - - 0;
#X obj 54 250 pofrect 2000 2000;
#X obj 27 203 t a a;
#X obj 27 312 pofblend SRC_ALPHA ONE;
#X obj 556 731 tgl 15 0 empty empty quality(default:1) 17 7 0 10 #fcfcfc #000000 #000000 0 1;
#X obj 27 176 poffbo 2048 2048;
#X obj 27 398 pofbeam 1 9;
#N canvas 409 30 475 425 brush_texture 0;
#X msg 89 238 0 0 \, 1 0.05 \, 2 0.1 \, 3 0.4 \, 4 1 \, 5 0.4 \, 6 0.1 \, 7 0.05 \, 8 0;
#X msg 89 289 setcolor \$1 \$2 \$3 \$4 \$5 \$6;
#X msg 89 266 0 \$1 0.2 0.9 0.2 \$2;
#X obj 38 42 inlet;
#X obj 38 326 pofimage \$0-brush \$0-brush;
#X obj 38 78 pofbang 1;
#X msg 146 134 0;
#X obj 38 349 outlet;
#X msg 120 48 1;
#X obj 89 100 i;
#X obj 146 107 + 1;
#X msg 120 71 0;
#X msg 106 212 resize 1 9;
#X msg 123 186 settype RGBA;
#X obj 89 135 moses 5;
#X obj 89 162 sel 3 2 1;
#X connect 0 0 2 0;
#X connect 1 0 4 0;
#X connect 2 0 1 0;
#X connect 3 0 5 0;
#X connect 4 0 7 0;
#X connect 5 0 4 0;
#X connect 5 1 9 0;
#X connect 6 0 5 0;
#X connect 8 0 5 0;
#X connect 8 0 11 0;
#X connect 9 0 14 0;
#X connect 10 0 9 1;
#X connect 11 0 9 1;
#X connect 12 0 4 0;
#X connect 13 0 4 0;
#X connect 14 0 10 0;
#X connect 14 0 15 0;
#X connect 14 1 6 0;
#X connect 15 0 0 0;
#X connect 15 1 12 0;
#X connect 15 2 13 0;
#X restore 27 284 pd brush_texture;
#X obj 177 179 spigot 1;
#X obj 54 227 pofcolor 0 0 0 1;
#X obj 27 72 t a a;
#X msg 53 150 format RGB;
#X msg 476 230 widthFilter \$1;
#X obj 479 203 hsl 153 18 0 1 0 0 empty empty empty -2 -9 0 10 #fcfcfc #000000 #000000 0 1;
#X msg 407 318 imsize 1 9;
#X text 404 286 pofbeam needs to be informed of texture size change:, f 28;
#X text 474 168 normalized frequency of the line-width lowpass filter:, f 28;
#X obj 267 351 bng 18 250 50 0 empty empty empty 0 -9 0 10 #fcfcfc #000000 #000000;
#N canvas 412 130 450 380 lissajous 0;
#X obj 126 332 outlet;
#X obj 126 78 t f b, f 7;
#X obj 126 101 until;
#X obj 126 124 i;
#X obj 166 125 + 1;
#X msg 165 102 0;
#X obj 126 147 / 1000;
#X obj 126 216 cos;
#X obj 175 217 sin;
#X msg 315 280 clear;
#X obj 126 239 * 200;
#X obj 175 240 * 200;
#X obj 126 193 * 40;
#X obj 126 10 inlet;
#X obj 175 194 * 31;
#X obj 265 66 metro 40;
#X obj 265 37 tgl 18 0 empty empty empty 0 -9 0 10 #fcfcfc #000000 #000000 0 1;
#X floatatom 244 175 5 0 0 0 - - - 0;
#X obj 126 170 t f f f, f 17;
#X obj 225 217 sin;
#X obj 225 194 * 31;
#X floatatom 289 173 5 0 0 0 - - - 0;
#X obj 126 262 pack f f f, f 17;
#X msg 126 289 add \$1 \$2 \$3;
#X floatatom 57 132 5 0 0 0 - - - 0;
#X msg 179 10 10;
#X obj 126 33 b;
#X obj 126 56 f 1000;
#X floatatom 158 33 5 0 0 0 - - - 0;
#X msg 212 10 1000;
#X obj 225 239 + 1.1;
#X connect 1 0 2 0;
#X connect 1 1 5 0;
#X connect 1 1 9 0;
#X connect 2 0 3 0;
#X connect 3 0 4 0;
#X connect 3 0 6 0;
#X connect 4 0 3 1;
#X connect 5 0 3 1;
#X connect 6 0 18 0;
#X connect 7 0 10 0;
#X connect 8 0 11 0;
#X connect 9 0 0 0;
#X connect 10 0 22 0;
#X connect 11 0 22 1;
#X connect 12 0 7 0;
#X connect 13 0 26 0;
#X connect 14 0 8 0;
#X connect 15 0 27 0;
#X connect 16 0 15 0;
#X connect 17 0 14 1;
#X connect 18 0 12 0;
#X connect 18 1 14 0;
#X connect 18 2 20 0;
#X connect 19 0 30 0;
#X connect 20 0 19 0;
#X connect 21 0 20 1;
#X connect 22 0 23 0;
#X connect 23 0 0 0;
#X connect 24 0 14 1;
#X connect 24 0 12 1;
#X connect 25 0 28 0;
#X connect 26 0 27 0;
#X connect 27 0 1 0;
#X connect 28 0 27 1;
#X connect 29 0 28 0;
#X connect 30 0 22 2;
#X restore 267 377 pd lissajous;
#X obj 267 326 loadbang;
#X msg 177 230 add \$1 \$2 1;
#X text 181 204 add: x y width;
#X text 13 466 (c) metalu.net/NinjaTune 2023 BSD Simplified License., f 55;
#X text 12 448 The main repository of this project is https://github.com/MetaluNet/pofBeam, f 77;
#X connect 0 0 24 0;
#X connect 1 0 2 0;
#X connect 2 0 20 0;
#X connect 3 0 25 0;
#X connect 5 1 6 0;
#X connect 6 0 7 0;
#X connect 6 1 8 0;
#X connect 6 2 9 0;
#X connect 7 0 22 0;
#X connect 8 0 7 1;
#X connect 9 0 7 1;
#X connect 10 0 22 1;
#X connect 11 0 2 0;
#X connect 12 0 2 0;
#X connect 13 0 11 0;
#X connect 14 0 12 0;
#X connect 16 0 21 0;
#X connect 16 1 23 0;
#X connect 17 0 20 0;
#X connect 19 0 16 0;
#X connect 21 0 17 0;
#X connect 22 0 34 0;
#X connect 23 0 15 0;
#X connect 24 0 19 0;
#X connect 24 1 5 0;
#X connect 25 0 19 0;
#X connect 26 0 2 0;
#X connect 27 0 26 0;
#X connect 28 0 2 0;
#X connect 31 0 32 0;
#X connect 32 0 2 0;
#X connect 33 0 31 0;
#X connect 34 0 2 0;
